<mxfile host="app.diagrams.net" modified="2024-05-30T04:32:51.077Z" agent="Mozilla/5.0 (Macintosh; Intel Mac OS X 10_15_7) AppleWebKit/537.36 (KHTML, like Gecko) Chrome/125.0.0.0 Safari/537.36" etag="iRcUjAHNcjokYMV-gmmL" version="24.4.10" type="github">
  <diagram name="Page-1" id="EAAXhlnD3NSpvqW1n32H">
    <mxGraphModel dx="658" dy="388" grid="1" gridSize="10" guides="1" tooltips="1" connect="1" arrows="1" fold="1" page="1" pageScale="1" pageWidth="827" pageHeight="1169" math="0" shadow="0">
      <root>
        <mxCell id="0" />
        <mxCell id="1" parent="0" />
        <mxCell id="E3ja3kEhC99o8EGt3xfG-3" value="Loans" style="swimlane;childLayout=stackLayout;horizontal=1;startSize=50;horizontalStack=0;rounded=1;fontSize=14;fontStyle=0;strokeWidth=2;resizeParent=0;resizeLast=1;shadow=0;dashed=0;align=center;arcSize=4;whiteSpace=wrap;html=1;" vertex="1" parent="1">
          <mxGeometry x="60" y="320" width="160" height="140" as="geometry" />
        </mxCell>
        <mxCell id="E3ja3kEhC99o8EGt3xfG-4" value="-Loan Date (PK)&lt;div&gt;-Return Date&lt;/div&gt;&lt;div&gt;-Member ID (PK) (FK)&lt;/div&gt;&lt;div&gt;-Barcode (PK) (FK)&lt;/div&gt;&lt;div&gt;-Staff ID (FK)&lt;/div&gt;" style="align=left;strokeColor=none;fillColor=none;spacingLeft=4;fontSize=12;verticalAlign=top;resizable=0;rotatable=0;part=1;html=1;" vertex="1" parent="E3ja3kEhC99o8EGt3xfG-3">
          <mxGeometry y="50" width="160" height="90" as="geometry" />
        </mxCell>
        <mxCell id="E3ja3kEhC99o8EGt3xfG-5" value="Librarians" style="swimlane;childLayout=stackLayout;horizontal=1;startSize=50;horizontalStack=0;rounded=1;fontSize=14;fontStyle=0;strokeWidth=2;resizeParent=0;resizeLast=1;shadow=0;dashed=0;align=center;arcSize=4;whiteSpace=wrap;html=1;" vertex="1" parent="1">
          <mxGeometry x="480" y="70" width="160" height="120" as="geometry" />
        </mxCell>
        <mxCell id="E3ja3kEhC99o8EGt3xfG-6" value="-Staff ID (PK)&lt;div&gt;-Name&lt;/div&gt;&lt;div&gt;-Address&lt;/div&gt;&lt;div&gt;-Phone&lt;/div&gt;" style="align=left;strokeColor=none;fillColor=none;spacingLeft=4;fontSize=12;verticalAlign=top;resizable=0;rotatable=0;part=1;html=1;" vertex="1" parent="E3ja3kEhC99o8EGt3xfG-5">
          <mxGeometry y="50" width="160" height="70" as="geometry" />
        </mxCell>
        <mxCell id="E3ja3kEhC99o8EGt3xfG-7" value="Members" style="swimlane;childLayout=stackLayout;horizontal=1;startSize=50;horizontalStack=0;rounded=1;fontSize=14;fontStyle=0;strokeWidth=2;resizeParent=0;resizeLast=1;shadow=0;dashed=0;align=center;arcSize=4;whiteSpace=wrap;html=1;" vertex="1" parent="1">
          <mxGeometry x="270" y="70" width="160" height="120" as="geometry" />
        </mxCell>
        <mxCell id="E3ja3kEhC99o8EGt3xfG-8" value="-Member ID (PK)&lt;div&gt;&lt;span style=&quot;background-color: initial;&quot;&gt;-Full Name&lt;/span&gt;&lt;div&gt;-Address&lt;/div&gt;&lt;div&gt;-Phone Number&lt;/div&gt;&lt;/div&gt;" style="align=left;strokeColor=none;fillColor=none;spacingLeft=4;fontSize=12;verticalAlign=top;resizable=0;rotatable=0;part=1;html=1;" vertex="1" parent="E3ja3kEhC99o8EGt3xfG-7">
          <mxGeometry y="50" width="160" height="70" as="geometry" />
        </mxCell>
        <mxCell id="E3ja3kEhC99o8EGt3xfG-9" value="Books" style="swimlane;childLayout=stackLayout;horizontal=1;startSize=50;horizontalStack=0;rounded=1;fontSize=14;fontStyle=0;strokeWidth=2;resizeParent=0;resizeLast=1;shadow=0;dashed=0;align=center;arcSize=4;whiteSpace=wrap;html=1;" vertex="1" parent="1">
          <mxGeometry x="60" y="70" width="160" height="150" as="geometry" />
        </mxCell>
        <mxCell id="E3ja3kEhC99o8EGt3xfG-10" value="-Barcode (PK)&lt;div&gt;-ISBN&lt;/div&gt;&lt;div&gt;-Genre&lt;/div&gt;&lt;div&gt;-Title&lt;/div&gt;&lt;div&gt;-Author&lt;/div&gt;&lt;div&gt;-Publication Year&lt;/div&gt;" style="align=left;strokeColor=none;fillColor=none;spacingLeft=4;fontSize=12;verticalAlign=top;resizable=0;rotatable=0;part=1;html=1;" vertex="1" parent="E3ja3kEhC99o8EGt3xfG-9">
          <mxGeometry y="50" width="160" height="100" as="geometry" />
        </mxCell>
        <mxCell id="E3ja3kEhC99o8EGt3xfG-22" value="" style="edgeStyle=entityRelationEdgeStyle;fontSize=12;html=1;endArrow=ERoneToMany;rounded=0;exitX=1;exitY=0.5;exitDx=0;exitDy=0;entryX=1;entryY=0.25;entryDx=0;entryDy=0;" edge="1" parent="1" source="E3ja3kEhC99o8EGt3xfG-10" target="E3ja3kEhC99o8EGt3xfG-4">
          <mxGeometry width="100" height="100" relative="1" as="geometry">
            <mxPoint x="290" y="300" as="sourcePoint" />
            <mxPoint x="390" y="200" as="targetPoint" />
          </mxGeometry>
        </mxCell>
        <mxCell id="E3ja3kEhC99o8EGt3xfG-23" value="" style="edgeStyle=entityRelationEdgeStyle;fontSize=12;html=1;endArrow=ERoneToMany;rounded=0;entryX=1;entryY=0.75;entryDx=0;entryDy=0;exitX=0.5;exitY=1;exitDx=0;exitDy=0;" edge="1" parent="1" source="E3ja3kEhC99o8EGt3xfG-8" target="E3ja3kEhC99o8EGt3xfG-4">
          <mxGeometry width="100" height="100" relative="1" as="geometry">
            <mxPoint x="440" y="200" as="sourcePoint" />
            <mxPoint x="390" y="200" as="targetPoint" />
          </mxGeometry>
        </mxCell>
        <mxCell id="E3ja3kEhC99o8EGt3xfG-25" value="" style="edgeStyle=entityRelationEdgeStyle;fontSize=12;html=1;endArrow=ERoneToMany;rounded=0;entryX=1;entryY=0.5;entryDx=0;entryDy=0;exitX=0;exitY=1;exitDx=0;exitDy=0;" edge="1" parent="1" source="E3ja3kEhC99o8EGt3xfG-6" target="E3ja3kEhC99o8EGt3xfG-4">
          <mxGeometry width="100" height="100" relative="1" as="geometry">
            <mxPoint x="290" y="300" as="sourcePoint" />
            <mxPoint x="390" y="200" as="targetPoint" />
          </mxGeometry>
        </mxCell>
      </root>
    </mxGraphModel>
  </diagram>
</mxfile>
